<?xml version="1.0" encoding="UTF-8" standalone="no"?>
<svg
   xmlns:dc="http://purl.org/dc/elements/1.1/"
   xmlns:cc="http://creativecommons.org/ns#"
   xmlns:rdf="http://www.w3.org/1999/02/22-rdf-syntax-ns#"
   xmlns:svg="http://www.w3.org/2000/svg"
   xmlns="http://www.w3.org/2000/svg"
   id="svg1514"
   version="1.1"
   viewBox="0 0 260.2952 238.64217"
   height="238.64217mm"
   width="260.2952mm">
  <defs
     id="defs1508" />
  <metadata
     id="metadata1511">
    <rdf:RDF>
      <cc:Work
         rdf:about="">
        <dc:format>image/svg+xml</dc:format>
        <dc:type
           rdf:resource="http://purl.org/dc/dcmitype/StillImage" />
        <dc:title></dc:title>
      </cc:Work>
    </rdf:RDF>
  </metadata>
  <g
     style="display:inline"
     id="layer2" />
  <g
     style="display:inline"
     transform="translate(-12.727399,-27.681073)"
     id="layer1">
    <path
       id="path912"
       d="m 172.48675,141.69433 c -1.27,-6.91444 -5.715,-14.21695 -11.21833,-18.415 -5.36222,-4.05695 -11.32417,-6.10306 -18.06222,-6.10306 -8.96056,-0.0353 -15.41639,2.82223 -22.68361,10.01889 -5.82083,5.75028 -11.18306,8.92528 -18.16806,10.795 -3.069159,0.84667 -4.056939,0.91723 -9.595549,0.91723 -5.50334,0 -6.52639,-0.0706 -9.56028,-0.88195 -6.94972,-1.86972 -11.9239,-4.83305 -17.9564,-10.65389 -5.75027,-5.57389 -9.48972,-7.86694 -15.48694,-9.45444 -3.21028,-0.84667 -10.01889,-1.02306 -13.26445,-0.3175 -9.17222,1.97555 -16.75694,7.97277 -20.81389,16.40416 -1.905,3.98639 -2.61055,6.80862 -2.89277,11.21834 -0.52917,8.74889 2.64583,16.82749 9.10166,23.14221 8.43139,8.29028 21.48417,10.68917 32.42028,5.96195 3.95111,-1.72862 6.45584,-3.52778 10.90084,-7.93751 9.10167,-8.99582 17.42723,-12.41776 29.21,-11.95915 10.230559,0.38805 17.779999,3.84528 25.893889,11.92388 4.1275,4.1275 6.87917,6.17361 10.44222,7.76111 7.33778,3.35139 16.93333,3.38667 24.27111,0.14111 7.97278,-3.56306 14.25223,-10.795 16.79223,-19.43805 0.81139,-2.82222 1.19944,-10.12472 0.67027,-13.12333 z"
       style="fill:#25c2a0;fill-opacity:1;stroke-width:0.03527778" />
    <path
       id="path914"
       d="m 36.138906,28.132825 c -9.948334,2.187223 -18.45028,9.771945 -21.731113,19.296945 -1.975556,5.750278 -2.222501,12.347222 -0.670278,17.885835 1.5875,5.609164 5.432778,11.46527 9.948335,15.16944 2.645833,2.15195 8.290278,4.97417 11.7475,5.89139 3.739445,0.9525 11.077222,0.88195 14.816668,-0.17639 C 61.609462,82.954495 69.970295,73.746999 71.981129,62.246438 72.545575,58.965605 72.192795,52.403937 71.240295,49.087826 69.652795,43.513937 65.772241,37.693103 61.291962,34.09477 58.540295,31.907548 53.425018,29.261714 50.250018,28.415047 47.216129,27.568381 39.313905,27.42727 36.138906,28.132825 Z"
       style="fill:#25c2a0;fill-opacity:1;stroke-width:0.03527778" />
    <path
       id="path914-3"
       d="m 236.90979,117.61339 c -9.94834,2.18723 -18.45029,9.77195 -21.73112,19.29695 -1.97556,5.75028 -2.2225,12.34722 -0.67028,17.88583 1.5875,5.60917 5.43278,11.46528 9.94834,15.16945 2.64583,2.15194 8.29028,4.97417 11.7475,5.89139 3.73944,0.9525 11.07722,0.88194 14.81667,-0.17639 11.35944,-3.24556 19.72027,-12.45306 21.73111,-23.95361 0.56444,-3.28084 0.21166,-9.8425 -0.74084,-13.15861 -1.5875,-5.57389 -5.46805,-11.39473 -9.94833,-14.99306 -2.75167,-2.18722 -7.86694,-4.83306 -11.04194,-5.67972 -3.03389,-0.84667 -10.93612,-0.98778 -14.11111,-0.28223 z"
       style="fill:#1a828f;fill-opacity:1;stroke-width:0.03527778" />
    <path
       id="path912-6"
       d="m 272.78013,52.213757 c -1.27,-6.91444 -5.715,-14.21695 -11.21833,-18.415 -5.36221,-4.05695 -11.32417,-6.10306 -18.06222,-6.10306 -8.96056,-0.0353 -15.41639,2.82223 -22.68361,10.01889 -5.82083,5.75028 -11.18306,8.92528 -18.16806,10.795 -3.06916,0.84667 -4.05694,0.91723 -9.59555,0.91723 -5.50334,0 -6.52639,-0.0706 -9.56028,-0.88195 -6.94972,-1.86972 -11.9239,-4.83305 -17.9564,-10.65389 -5.75027,-5.57389 -9.48972,-7.86694 -15.48694,-9.45444 -3.21028,-0.84667 -10.01889,-1.02306 -13.26445,-0.3175 -9.17222,1.97555 -16.75694,7.97277 -20.81389,16.40416 -1.905,3.98639 -2.61055,6.80862 -2.89277,11.21834 -0.52917,8.74889 2.64583,16.82749 9.10166,23.14221 8.43139,8.29028 21.48417,10.68917 32.42028,5.96195 3.95111,-1.72862 6.45584,-3.52778 10.90084,-7.93751 9.10167,-8.99582 17.42723,-12.41776 29.21,-11.95915 10.23056,0.38805 17.78,3.84528 25.89389,11.92388 4.1275,4.1275 6.87917,6.17361 10.44222,7.76111 7.33778,3.35139 16.93333,3.38667 24.27111,0.14111 7.97278,-3.56306 14.25223,-10.795 16.79223,-19.43805 0.81139,-2.82222 1.19944,-10.12472 0.67027,-13.12333 z"
       style="fill:#1a828f;fill-opacity:1;stroke-width:0.03527778" />
    <path
       id="path910"
       d="m 272.56325,230.03186 c -1.94027,-8.60778 -7.54944,-15.875 -15.34583,-19.89667 -4.16278,-2.15194 -7.44361,-3.03388 -12.27667,-3.28083 -4.69194,-0.24694 -7.72583,0.21167 -11.99444,1.72861 -4.05695,1.48167 -7.47889,3.81 -12.31195,8.46667 -2.29305,2.18722 -5.08,4.58611 -6.17361,5.32694 -2.89278,1.905 -7.37306,3.95112 -11.04194,5.04473 -2.96334,0.91722 -3.63362,0.98777 -9.87778,0.98777 -5.92667,0.0353 -7.05556,-0.0706 -9.87778,-0.77611 -3.52778,-0.9525 -8.60778,-3.21028 -11.71222,-5.22111 -1.12889,-0.74083 -3.77472,-3.03389 -5.92667,-5.11528 -2.11666,-2.08139 -5.04472,-4.58611 -6.49111,-5.57389 -7.72583,-5.32694 -18.27389,-6.49111 -27.41083,-3.03388 -3.84528,1.44638 -7.26722,3.84527 -11.88861,8.255 -5.67973,5.43277 -9.38389,7.79638 -15.20473,9.77194 -7.655265,2.61056 -17.603605,2.57528 -25.011935,-0.10583 -5.92667,-2.11667 -9.41917,-4.37445 -15.02834,-9.77195 -5.64444,-5.3975 -8.81944,-7.40833 -14.39333,-9.10166 -3.42195,-0.98778 -10.33639,-1.27 -13.97,-0.49389 -11.78278,2.43416 -20.955,11.46527 -23.35389,23.00111 -0.635,3.06916 -0.74084,8.92528 -0.17639,11.78278 1.94028,10.30111 9.66611,19.22639 19.50861,22.61305 3.98639,1.37584 7.51417,1.86973 11.53584,1.62278 4.23333,-0.28222 7.12611,-1.02305 10.90083,-2.75167 3.81,-1.76388 6.0325,-3.45722 10.4775,-7.90222 8.43139,-8.43139 17.92111,-12.27667 29.03361,-11.71222 9.877775,0.49389 17.674165,4.1275 25.541115,11.92389 5.715,5.67972 9.10166,7.79639 15.31055,9.56028 2.29306,0.67027 3.59833,0.77611 7.69056,0.77611 4.30389,-0.0353 5.32694,-0.14111 8.04333,-0.98778 5.85611,-1.76389 8.99583,-3.77472 14.605,-9.34861 7.83166,-7.76111 15.66333,-11.43 25.54111,-11.92389 6.70278,-0.3175 12.55889,0.88194 18.48556,3.84528 4.05694,2.04611 6.91444,4.16277 11.07722,8.32555 5.36222,5.36222 9.13694,7.69056 15.02833,9.27806 4.02167,1.12889 11.14778,1.12889 15.13417,0.0353 9.94833,-2.75167 17.81528,-10.33639 21.02556,-20.35528 1.02305,-3.21028 1.34055,-11.46528 0.52916,-14.99306 z"
       style="fill:#25c2a0;fill-opacity:1;stroke-width:0.03527778" />
  </g>
</svg>
